<mxfile host="app.diagrams.net" modified="2024-02-26T09:38:57.269Z" agent="Mozilla/5.0 (Windows NT 10.0; Win64; x64) AppleWebKit/537.36 (KHTML, like Gecko) Chrome/122.0.0.0 Safari/537.36 Edg/122.0.0.0" etag="ai2pLagKpAHpW7NihsPS" version="23.1.6" type="device">
  <diagram name="Page-1" id="rT7v-CfY6fRUVeZvGnfL">
    <mxGraphModel dx="1042" dy="1738" grid="1" gridSize="10" guides="1" tooltips="1" connect="1" arrows="1" fold="1" page="1" pageScale="1" pageWidth="827" pageHeight="1169" math="0" shadow="0">
      <root>
        <mxCell id="0" />
        <mxCell id="1" parent="0" />
        <mxCell id="Q1NeRL6iemB3Z1dB65Ai-72" value="" style="whiteSpace=wrap;html=1;aspect=fixed;" parent="1" vertex="1">
          <mxGeometry x="170" y="580" width="450" height="450" as="geometry" />
        </mxCell>
        <mxCell id="Q1NeRL6iemB3Z1dB65Ai-81" value="visiteur" style="shape=umlActor;verticalLabelPosition=bottom;verticalAlign=top;html=1;" parent="1" vertex="1">
          <mxGeometry x="40" y="585" width="30" height="60" as="geometry" />
        </mxCell>
        <mxCell id="Q1NeRL6iemB3Z1dB65Ai-83" value="membre&lt;br&gt;" style="shape=umlActor;verticalLabelPosition=bottom;verticalAlign=top;html=1;" parent="1" vertex="1">
          <mxGeometry x="40" y="757" width="30" height="60" as="geometry" />
        </mxCell>
        <mxCell id="Q1NeRL6iemB3Z1dB65Ai-86" value="seléctionner&lt;br&gt;des produits" style="ellipse;whiteSpace=wrap;html=1;" parent="1" vertex="1">
          <mxGeometry x="235" y="585" width="140" height="35" as="geometry" />
        </mxCell>
        <mxCell id="Q1NeRL6iemB3Z1dB65Ai-87" value="Valider une&lt;br&gt;commande" style="ellipse;whiteSpace=wrap;html=1;" parent="1" vertex="1">
          <mxGeometry x="218" y="750" width="140" height="40" as="geometry" />
        </mxCell>
        <mxCell id="Q1NeRL6iemB3Z1dB65Ai-89" value="" style="endArrow=none;html=1;rounded=0;entryX=0;entryY=0.5;entryDx=0;entryDy=0;" parent="1" target="Q1NeRL6iemB3Z1dB65Ai-86" edge="1">
          <mxGeometry relative="1" as="geometry">
            <mxPoint x="80" y="615" as="sourcePoint" />
            <mxPoint x="220" y="690" as="targetPoint" />
          </mxGeometry>
        </mxCell>
        <mxCell id="Q1NeRL6iemB3Z1dB65Ai-91" value="" style="endArrow=none;html=1;rounded=0;entryX=0;entryY=0.5;entryDx=0;entryDy=0;" parent="1" target="Q1NeRL6iemB3Z1dB65Ai-87" edge="1">
          <mxGeometry relative="1" as="geometry">
            <mxPoint x="70" y="787" as="sourcePoint" />
            <mxPoint x="235" y="729.5" as="targetPoint" />
          </mxGeometry>
        </mxCell>
        <mxCell id="Q1NeRL6iemB3Z1dB65Ai-92" value="admin" style="shape=umlActor;verticalLabelPosition=bottom;verticalAlign=top;html=1;" parent="1" vertex="1">
          <mxGeometry x="40" y="930" width="30" height="60" as="geometry" />
        </mxCell>
        <mxCell id="Q1NeRL6iemB3Z1dB65Ai-98" value="mettre à jour un produit&lt;br&gt;" style="ellipse;whiteSpace=wrap;html=1;" parent="1" vertex="1">
          <mxGeometry x="225" y="910" width="140" height="40" as="geometry" />
        </mxCell>
        <mxCell id="Q1NeRL6iemB3Z1dB65Ai-99" value="" style="endArrow=none;html=1;rounded=0;entryX=0;entryY=0.5;entryDx=0;entryDy=0;" parent="1" target="Q1NeRL6iemB3Z1dB65Ai-98" edge="1">
          <mxGeometry relative="1" as="geometry">
            <mxPoint x="70" y="970" as="sourcePoint" />
            <mxPoint x="230" y="850" as="targetPoint" />
          </mxGeometry>
        </mxCell>
        <mxCell id="Q1NeRL6iemB3Z1dB65Ai-132" style="edgeStyle=orthogonalEdgeStyle;rounded=0;orthogonalLoop=1;jettySize=auto;html=1;entryX=0.8;entryY=0.578;entryDx=0;entryDy=0;entryPerimeter=0;exitX=1;exitY=0.5;exitDx=0;exitDy=0;dashed=1;" parent="1" source="Q1NeRL6iemB3Z1dB65Ai-101" target="Q1NeRL6iemB3Z1dB65Ai-72" edge="1">
          <mxGeometry relative="1" as="geometry">
            <Array as="points">
              <mxPoint x="373" y="990" />
              <mxPoint x="373" y="950" />
              <mxPoint x="530" y="950" />
            </Array>
          </mxGeometry>
        </mxCell>
        <mxCell id="Q1NeRL6iemB3Z1dB65Ai-101" value="supprimer un adhérent" style="ellipse;whiteSpace=wrap;html=1;" parent="1" vertex="1">
          <mxGeometry x="230" y="970" width="140" height="40" as="geometry" />
        </mxCell>
        <mxCell id="Q1NeRL6iemB3Z1dB65Ai-102" value="" style="endArrow=none;html=1;rounded=0;exitX=1;exitY=0.833;exitDx=0;exitDy=0;exitPerimeter=0;entryX=0;entryY=0.5;entryDx=0;entryDy=0;" parent="1" source="Q1NeRL6iemB3Z1dB65Ai-92" target="Q1NeRL6iemB3Z1dB65Ai-101" edge="1">
          <mxGeometry relative="1" as="geometry">
            <mxPoint x="80" y="870" as="sourcePoint" />
            <mxPoint x="240" y="900" as="targetPoint" />
          </mxGeometry>
        </mxCell>
        <mxCell id="Q1NeRL6iemB3Z1dB65Ai-103" value="Authentification" style="ellipse;whiteSpace=wrap;html=1;" parent="1" vertex="1">
          <mxGeometry x="445" y="800" width="140" height="40" as="geometry" />
        </mxCell>
        <mxCell id="Q1NeRL6iemB3Z1dB65Ai-104" value="" style="endArrow=block;dashed=1;endFill=0;endSize=12;html=1;rounded=0;" parent="1" edge="1">
          <mxGeometry width="160" relative="1" as="geometry">
            <mxPoint x="360" y="780" as="sourcePoint" />
            <mxPoint x="450" y="810" as="targetPoint" />
          </mxGeometry>
        </mxCell>
        <mxCell id="Q1NeRL6iemB3Z1dB65Ai-105" value="&amp;lt;includ&amp;gt;" style="text;strokeColor=none;fillColor=none;spacingLeft=4;spacingRight=4;overflow=hidden;rotatable=0;points=[[0,0.5],[1,0.5]];portConstraint=eastwest;fontSize=12;whiteSpace=wrap;html=1;" parent="1" vertex="1">
          <mxGeometry x="388" y="772" width="56" height="30" as="geometry" />
        </mxCell>
        <mxCell id="Q1NeRL6iemB3Z1dB65Ai-106" value="" style="endArrow=block;dashed=1;endFill=0;endSize=12;html=1;rounded=0;entryX=0.414;entryY=0.967;entryDx=0;entryDy=0;entryPerimeter=0;exitX=1;exitY=0.5;exitDx=0;exitDy=0;" parent="1" source="Q1NeRL6iemB3Z1dB65Ai-98" target="Q1NeRL6iemB3Z1dB65Ai-103" edge="1">
          <mxGeometry width="160" relative="1" as="geometry">
            <mxPoint x="370" y="840" as="sourcePoint" />
            <mxPoint x="470" y="780" as="targetPoint" />
            <Array as="points" />
          </mxGeometry>
        </mxCell>
        <mxCell id="Q1NeRL6iemB3Z1dB65Ai-108" value="&amp;lt;includ&amp;gt;" style="text;strokeColor=none;fillColor=none;spacingLeft=4;spacingRight=4;overflow=hidden;rotatable=0;points=[[0,0.5],[1,0.5]];portConstraint=eastwest;fontSize=12;whiteSpace=wrap;html=1;" parent="1" vertex="1">
          <mxGeometry x="349" y="887" width="56" height="30" as="geometry" />
        </mxCell>
        <mxCell id="Q1NeRL6iemB3Z1dB65Ai-109" value="&amp;lt;includ&amp;gt;" style="text;strokeColor=none;fillColor=none;spacingLeft=4;spacingRight=4;overflow=hidden;rotatable=0;points=[[0,0.5],[1,0.5]];portConstraint=eastwest;fontSize=12;whiteSpace=wrap;html=1;" parent="1" vertex="1">
          <mxGeometry x="470" y="915" width="56" height="30" as="geometry" />
        </mxCell>
        <mxCell id="Q1NeRL6iemB3Z1dB65Ai-111" value="s&#39;enregistrer" style="ellipse;whiteSpace=wrap;html=1;" parent="1" vertex="1">
          <mxGeometry x="230" y="630" width="140" height="35" as="geometry" />
        </mxCell>
        <mxCell id="Q1NeRL6iemB3Z1dB65Ai-112" value="contacter" style="ellipse;whiteSpace=wrap;html=1;" parent="1" vertex="1">
          <mxGeometry x="235" y="670" width="140" height="35" as="geometry" />
        </mxCell>
        <mxCell id="Q1NeRL6iemB3Z1dB65Ai-113" value="" style="endArrow=none;html=1;rounded=0;" parent="1" edge="1">
          <mxGeometry relative="1" as="geometry">
            <mxPoint x="80" y="630" as="sourcePoint" />
            <mxPoint x="230" y="648" as="targetPoint" />
          </mxGeometry>
        </mxCell>
        <mxCell id="Q1NeRL6iemB3Z1dB65Ai-114" value="" style="endArrow=none;html=1;rounded=0;entryX=0.017;entryY=0.343;entryDx=0;entryDy=0;entryPerimeter=0;" parent="1" target="Q1NeRL6iemB3Z1dB65Ai-112" edge="1">
          <mxGeometry relative="1" as="geometry">
            <mxPoint x="80" y="640" as="sourcePoint" />
            <mxPoint x="255" y="623" as="targetPoint" />
          </mxGeometry>
        </mxCell>
        <mxCell id="Q1NeRL6iemB3Z1dB65Ai-115" value="" style="endArrow=open;endFill=1;endSize=12;html=1;rounded=0;exitX=0.5;exitY=0;exitDx=0;exitDy=0;exitPerimeter=0;" parent="1" source="Q1NeRL6iemB3Z1dB65Ai-83" edge="1">
          <mxGeometry width="160" relative="1" as="geometry">
            <mxPoint x="54" y="720" as="sourcePoint" />
            <mxPoint x="55" y="660" as="targetPoint" />
          </mxGeometry>
        </mxCell>
        <mxCell id="Q1NeRL6iemB3Z1dB65Ai-118" value="Ajouter un avis&lt;br&gt;sur un produit" style="ellipse;whiteSpace=wrap;html=1;" parent="1" vertex="1">
          <mxGeometry x="224" y="840" width="140" height="40" as="geometry" />
        </mxCell>
        <mxCell id="Q1NeRL6iemB3Z1dB65Ai-119" value="" style="endArrow=none;html=1;rounded=0;entryX=0;entryY=0;entryDx=0;entryDy=0;" parent="1" source="Q1NeRL6iemB3Z1dB65Ai-83" target="Q1NeRL6iemB3Z1dB65Ai-118" edge="1">
          <mxGeometry relative="1" as="geometry">
            <mxPoint x="81" y="789" as="sourcePoint" />
            <mxPoint x="228" y="750" as="targetPoint" />
          </mxGeometry>
        </mxCell>
        <mxCell id="Q1NeRL6iemB3Z1dB65Ai-120" value="&amp;lt;includ&amp;gt;" style="text;strokeColor=none;fillColor=none;spacingLeft=4;spacingRight=4;overflow=hidden;rotatable=0;points=[[0,0.5],[1,0.5]];portConstraint=eastwest;fontSize=12;whiteSpace=wrap;html=1;" parent="1" vertex="1">
          <mxGeometry x="344" y="820" width="56" height="30" as="geometry" />
        </mxCell>
        <mxCell id="Q1NeRL6iemB3Z1dB65Ai-121" value="" style="endArrow=block;dashed=1;endFill=0;endSize=12;html=1;rounded=0;exitX=1.012;exitY=0.3;exitDx=0;exitDy=0;exitPerimeter=0;entryX=0;entryY=0.5;entryDx=0;entryDy=0;" parent="1" source="Q1NeRL6iemB3Z1dB65Ai-118" target="Q1NeRL6iemB3Z1dB65Ai-103" edge="1">
          <mxGeometry width="160" relative="1" as="geometry">
            <mxPoint x="300" y="870" as="sourcePoint" />
            <mxPoint x="400" y="780" as="targetPoint" />
            <Array as="points" />
          </mxGeometry>
        </mxCell>
        <mxCell id="Q1NeRL6iemB3Z1dB65Ai-124" value="Ajouter des produits" style="ellipse;whiteSpace=wrap;html=1;" parent="1" vertex="1">
          <mxGeometry x="470" y="595" width="140" height="35" as="geometry" />
        </mxCell>
        <mxCell id="Q1NeRL6iemB3Z1dB65Ai-125" value="&amp;lt;extend&amp;gt;" style="text;strokeColor=none;fillColor=none;spacingLeft=4;spacingRight=4;overflow=hidden;rotatable=0;points=[[0,0.5],[1,0.5]];portConstraint=eastwest;fontSize=12;whiteSpace=wrap;html=1;" parent="1" vertex="1">
          <mxGeometry x="389" y="610" width="61" height="30" as="geometry" />
        </mxCell>
        <mxCell id="Q1NeRL6iemB3Z1dB65Ai-130" value="" style="endArrow=block;dashed=1;endFill=0;endSize=12;html=1;rounded=0;" parent="1" edge="1">
          <mxGeometry width="160" relative="1" as="geometry">
            <mxPoint x="470" y="616" as="sourcePoint" />
            <mxPoint x="370" y="600" as="targetPoint" />
            <Array as="points">
              <mxPoint x="420" y="606" />
            </Array>
          </mxGeometry>
        </mxCell>
        <mxCell id="LPIL-vZghZbP_RCuR63S-381" value="Produits" style="swimlane;fontStyle=0;childLayout=stackLayout;horizontal=1;startSize=30;horizontalStack=0;resizeParent=1;resizeParentMax=0;resizeLast=0;collapsible=1;marginBottom=0;whiteSpace=wrap;html=1;" vertex="1" parent="1">
          <mxGeometry x="80" y="-1110" width="140" height="250" as="geometry" />
        </mxCell>
        <mxCell id="LPIL-vZghZbP_RCuR63S-382" value="id" style="text;strokeColor=none;fillColor=none;align=left;verticalAlign=middle;spacingLeft=4;spacingRight=4;overflow=hidden;points=[[0,0.5],[1,0.5]];portConstraint=eastwest;rotatable=0;whiteSpace=wrap;html=1;" vertex="1" parent="LPIL-vZghZbP_RCuR63S-381">
          <mxGeometry y="30" width="140" height="20" as="geometry" />
        </mxCell>
        <mxCell id="LPIL-vZghZbP_RCuR63S-383" value="nom" style="text;strokeColor=none;fillColor=none;align=left;verticalAlign=middle;spacingLeft=4;spacingRight=4;overflow=hidden;points=[[0,0.5],[1,0.5]];portConstraint=eastwest;rotatable=0;whiteSpace=wrap;html=1;" vertex="1" parent="LPIL-vZghZbP_RCuR63S-381">
          <mxGeometry y="50" width="140" height="30" as="geometry" />
        </mxCell>
        <mxCell id="LPIL-vZghZbP_RCuR63S-384" value="ctegorie" style="text;strokeColor=none;fillColor=none;align=left;verticalAlign=middle;spacingLeft=4;spacingRight=4;overflow=hidden;points=[[0,0.5],[1,0.5]];portConstraint=eastwest;rotatable=0;whiteSpace=wrap;html=1;" vertex="1" parent="LPIL-vZghZbP_RCuR63S-381">
          <mxGeometry y="80" width="140" height="30" as="geometry" />
        </mxCell>
        <mxCell id="LPIL-vZghZbP_RCuR63S-385" value="description_courte&lt;br&gt;" style="text;strokeColor=none;fillColor=none;align=left;verticalAlign=middle;spacingLeft=4;spacingRight=4;overflow=hidden;points=[[0,0.5],[1,0.5]];portConstraint=eastwest;rotatable=0;whiteSpace=wrap;html=1;" vertex="1" parent="LPIL-vZghZbP_RCuR63S-381">
          <mxGeometry y="110" width="140" height="30" as="geometry" />
        </mxCell>
        <mxCell id="LPIL-vZghZbP_RCuR63S-386" value="description_complete" style="text;strokeColor=none;fillColor=none;align=left;verticalAlign=middle;spacingLeft=4;spacingRight=4;overflow=hidden;points=[[0,0.5],[1,0.5]];portConstraint=eastwest;rotatable=0;whiteSpace=wrap;html=1;" vertex="1" parent="LPIL-vZghZbP_RCuR63S-381">
          <mxGeometry y="140" width="140" height="30" as="geometry" />
        </mxCell>
        <mxCell id="LPIL-vZghZbP_RCuR63S-387" value="prix" style="text;strokeColor=none;fillColor=none;align=left;verticalAlign=middle;spacingLeft=4;spacingRight=4;overflow=hidden;points=[[0,0.5],[1,0.5]];portConstraint=eastwest;rotatable=0;whiteSpace=wrap;html=1;" vertex="1" parent="LPIL-vZghZbP_RCuR63S-381">
          <mxGeometry y="170" width="140" height="30" as="geometry" />
        </mxCell>
        <mxCell id="LPIL-vZghZbP_RCuR63S-388" value="stock" style="text;strokeColor=none;fillColor=none;align=left;verticalAlign=middle;spacingLeft=4;spacingRight=4;overflow=hidden;points=[[0,0.5],[1,0.5]];portConstraint=eastwest;rotatable=0;whiteSpace=wrap;html=1;" vertex="1" parent="LPIL-vZghZbP_RCuR63S-381">
          <mxGeometry y="200" width="140" height="30" as="geometry" />
        </mxCell>
        <mxCell id="LPIL-vZghZbP_RCuR63S-389" value="image" style="text;strokeColor=none;fillColor=none;align=left;verticalAlign=middle;spacingLeft=4;spacingRight=4;overflow=hidden;points=[[0,0.5],[1,0.5]];portConstraint=eastwest;rotatable=0;whiteSpace=wrap;html=1;" vertex="1" parent="LPIL-vZghZbP_RCuR63S-381">
          <mxGeometry y="230" width="140" height="20" as="geometry" />
        </mxCell>
        <mxCell id="LPIL-vZghZbP_RCuR63S-390" value="Utilisateurs" style="swimlane;fontStyle=0;childLayout=stackLayout;horizontal=1;startSize=30;horizontalStack=0;resizeParent=1;resizeParentMax=0;resizeLast=0;collapsible=1;marginBottom=0;whiteSpace=wrap;html=1;" vertex="1" parent="1">
          <mxGeometry x="520" y="-890" width="140" height="240" as="geometry" />
        </mxCell>
        <mxCell id="LPIL-vZghZbP_RCuR63S-391" value="id" style="text;strokeColor=none;fillColor=none;align=left;verticalAlign=middle;spacingLeft=4;spacingRight=4;overflow=hidden;points=[[0,0.5],[1,0.5]];portConstraint=eastwest;rotatable=0;whiteSpace=wrap;html=1;" vertex="1" parent="LPIL-vZghZbP_RCuR63S-390">
          <mxGeometry y="30" width="140" height="30" as="geometry" />
        </mxCell>
        <mxCell id="LPIL-vZghZbP_RCuR63S-392" value="nom" style="text;strokeColor=none;fillColor=none;align=left;verticalAlign=middle;spacingLeft=4;spacingRight=4;overflow=hidden;points=[[0,0.5],[1,0.5]];portConstraint=eastwest;rotatable=0;whiteSpace=wrap;html=1;" vertex="1" parent="LPIL-vZghZbP_RCuR63S-390">
          <mxGeometry y="60" width="140" height="30" as="geometry" />
        </mxCell>
        <mxCell id="LPIL-vZghZbP_RCuR63S-393" value="prenom" style="text;strokeColor=none;fillColor=none;align=left;verticalAlign=middle;spacingLeft=4;spacingRight=4;overflow=hidden;points=[[0,0.5],[1,0.5]];portConstraint=eastwest;rotatable=0;whiteSpace=wrap;html=1;" vertex="1" parent="LPIL-vZghZbP_RCuR63S-390">
          <mxGeometry y="90" width="140" height="30" as="geometry" />
        </mxCell>
        <mxCell id="LPIL-vZghZbP_RCuR63S-394" value="type_utilisateur" style="text;strokeColor=none;fillColor=none;align=left;verticalAlign=middle;spacingLeft=4;spacingRight=4;overflow=hidden;points=[[0,0.5],[1,0.5]];portConstraint=eastwest;rotatable=0;whiteSpace=wrap;html=1;" vertex="1" parent="LPIL-vZghZbP_RCuR63S-390">
          <mxGeometry y="120" width="140" height="30" as="geometry" />
        </mxCell>
        <mxCell id="LPIL-vZghZbP_RCuR63S-395" value="telephone" style="text;strokeColor=none;fillColor=none;align=left;verticalAlign=middle;spacingLeft=4;spacingRight=4;overflow=hidden;points=[[0,0.5],[1,0.5]];portConstraint=eastwest;rotatable=0;whiteSpace=wrap;html=1;" vertex="1" parent="LPIL-vZghZbP_RCuR63S-390">
          <mxGeometry y="150" width="140" height="30" as="geometry" />
        </mxCell>
        <mxCell id="LPIL-vZghZbP_RCuR63S-396" value="email" style="text;strokeColor=none;fillColor=none;align=left;verticalAlign=middle;spacingLeft=4;spacingRight=4;overflow=hidden;points=[[0,0.5],[1,0.5]];portConstraint=eastwest;rotatable=0;whiteSpace=wrap;html=1;" vertex="1" parent="LPIL-vZghZbP_RCuR63S-390">
          <mxGeometry y="180" width="140" height="30" as="geometry" />
        </mxCell>
        <mxCell id="LPIL-vZghZbP_RCuR63S-397" value="token" style="text;strokeColor=none;fillColor=none;align=left;verticalAlign=middle;spacingLeft=4;spacingRight=4;overflow=hidden;points=[[0,0.5],[1,0.5]];portConstraint=eastwest;rotatable=0;whiteSpace=wrap;html=1;" vertex="1" parent="LPIL-vZghZbP_RCuR63S-390">
          <mxGeometry y="210" width="140" height="30" as="geometry" />
        </mxCell>
        <mxCell id="LPIL-vZghZbP_RCuR63S-398" value="NoteAvis" style="swimlane;fontStyle=0;childLayout=stackLayout;horizontal=1;startSize=30;horizontalStack=0;resizeParent=1;resizeParentMax=0;resizeLast=0;collapsible=1;marginBottom=0;whiteSpace=wrap;html=1;" vertex="1" parent="1">
          <mxGeometry x="500" y="-1110" width="140" height="150" as="geometry" />
        </mxCell>
        <mxCell id="LPIL-vZghZbP_RCuR63S-399" value="id" style="text;strokeColor=none;fillColor=none;align=left;verticalAlign=middle;spacingLeft=4;spacingRight=4;overflow=hidden;points=[[0,0.5],[1,0.5]];portConstraint=eastwest;rotatable=0;whiteSpace=wrap;html=1;" vertex="1" parent="LPIL-vZghZbP_RCuR63S-398">
          <mxGeometry y="30" width="140" height="30" as="geometry" />
        </mxCell>
        <mxCell id="LPIL-vZghZbP_RCuR63S-400" value="note" style="text;strokeColor=none;fillColor=none;align=left;verticalAlign=middle;spacingLeft=4;spacingRight=4;overflow=hidden;points=[[0,0.5],[1,0.5]];portConstraint=eastwest;rotatable=0;whiteSpace=wrap;html=1;" vertex="1" parent="LPIL-vZghZbP_RCuR63S-398">
          <mxGeometry y="60" width="140" height="30" as="geometry" />
        </mxCell>
        <mxCell id="LPIL-vZghZbP_RCuR63S-401" value="avis" style="text;strokeColor=none;fillColor=none;align=left;verticalAlign=middle;spacingLeft=4;spacingRight=4;overflow=hidden;points=[[0,0.5],[1,0.5]];portConstraint=eastwest;rotatable=0;whiteSpace=wrap;html=1;" vertex="1" parent="LPIL-vZghZbP_RCuR63S-398">
          <mxGeometry y="90" width="140" height="30" as="geometry" />
        </mxCell>
        <mxCell id="LPIL-vZghZbP_RCuR63S-402" value="date" style="text;strokeColor=none;fillColor=none;align=left;verticalAlign=middle;spacingLeft=4;spacingRight=4;overflow=hidden;points=[[0,0.5],[1,0.5]];portConstraint=eastwest;rotatable=0;whiteSpace=wrap;html=1;" vertex="1" parent="LPIL-vZghZbP_RCuR63S-398">
          <mxGeometry y="120" width="140" height="30" as="geometry" />
        </mxCell>
        <mxCell id="LPIL-vZghZbP_RCuR63S-403" value="Commandes" style="swimlane;fontStyle=0;childLayout=stackLayout;horizontal=1;startSize=30;horizontalStack=0;resizeParent=1;resizeParentMax=0;resizeLast=0;collapsible=1;marginBottom=0;whiteSpace=wrap;html=1;" vertex="1" parent="1">
          <mxGeometry x="130" y="-830" width="140" height="180" as="geometry" />
        </mxCell>
        <mxCell id="LPIL-vZghZbP_RCuR63S-404" value="id" style="text;strokeColor=none;fillColor=none;align=left;verticalAlign=middle;spacingLeft=4;spacingRight=4;overflow=hidden;points=[[0,0.5],[1,0.5]];portConstraint=eastwest;rotatable=0;whiteSpace=wrap;html=1;" vertex="1" parent="LPIL-vZghZbP_RCuR63S-403">
          <mxGeometry y="30" width="140" height="30" as="geometry" />
        </mxCell>
        <mxCell id="LPIL-vZghZbP_RCuR63S-405" value="prix" style="text;strokeColor=none;fillColor=none;align=left;verticalAlign=middle;spacingLeft=4;spacingRight=4;overflow=hidden;points=[[0,0.5],[1,0.5]];portConstraint=eastwest;rotatable=0;whiteSpace=wrap;html=1;" vertex="1" parent="LPIL-vZghZbP_RCuR63S-403">
          <mxGeometry y="60" width="140" height="30" as="geometry" />
        </mxCell>
        <mxCell id="LPIL-vZghZbP_RCuR63S-406" value="quantite" style="text;strokeColor=none;fillColor=none;align=left;verticalAlign=middle;spacingLeft=4;spacingRight=4;overflow=hidden;points=[[0,0.5],[1,0.5]];portConstraint=eastwest;rotatable=0;whiteSpace=wrap;html=1;" vertex="1" parent="LPIL-vZghZbP_RCuR63S-403">
          <mxGeometry y="90" width="140" height="30" as="geometry" />
        </mxCell>
        <mxCell id="LPIL-vZghZbP_RCuR63S-407" value="total" style="text;strokeColor=none;fillColor=none;align=left;verticalAlign=middle;spacingLeft=4;spacingRight=4;overflow=hidden;points=[[0,0.5],[1,0.5]];portConstraint=eastwest;rotatable=0;whiteSpace=wrap;html=1;" vertex="1" parent="LPIL-vZghZbP_RCuR63S-403">
          <mxGeometry y="120" width="140" height="30" as="geometry" />
        </mxCell>
        <mxCell id="LPIL-vZghZbP_RCuR63S-408" value="date" style="text;strokeColor=none;fillColor=none;align=left;verticalAlign=middle;spacingLeft=4;spacingRight=4;overflow=hidden;points=[[0,0.5],[1,0.5]];portConstraint=eastwest;rotatable=0;whiteSpace=wrap;html=1;" vertex="1" parent="LPIL-vZghZbP_RCuR63S-403">
          <mxGeometry y="150" width="140" height="30" as="geometry" />
        </mxCell>
        <mxCell id="LPIL-vZghZbP_RCuR63S-409" value="" style="edgeStyle=entityRelationEdgeStyle;rounded=0;orthogonalLoop=1;jettySize=auto;html=1;startArrow=none;endArrow=none;segment=10;curved=1;sourcePerimeterSpacing=0;targetPerimeterSpacing=0;entryX=0.571;entryY=-0.003;entryDx=0;entryDy=0;entryPerimeter=0;" edge="1" parent="1" source="LPIL-vZghZbP_RCuR63S-411" target="LPIL-vZghZbP_RCuR63S-390">
          <mxGeometry relative="1" as="geometry" />
        </mxCell>
        <mxCell id="LPIL-vZghZbP_RCuR63S-410" value="" style="edgeStyle=entityRelationEdgeStyle;rounded=0;orthogonalLoop=1;jettySize=auto;html=1;startArrow=none;endArrow=none;segment=10;curved=1;sourcePerimeterSpacing=0;targetPerimeterSpacing=0;" edge="1" parent="1" source="LPIL-vZghZbP_RCuR63S-411" target="LPIL-vZghZbP_RCuR63S-402">
          <mxGeometry relative="1" as="geometry" />
        </mxCell>
        <mxCell id="LPIL-vZghZbP_RCuR63S-411" value="émettre" style="ellipse;whiteSpace=wrap;html=1;align=center;newEdgeStyle={&quot;edgeStyle&quot;:&quot;entityRelationEdgeStyle&quot;,&quot;startArrow&quot;:&quot;none&quot;,&quot;endArrow&quot;:&quot;none&quot;,&quot;segment&quot;:10,&quot;curved&quot;:1,&quot;sourcePerimeterSpacing&quot;:0,&quot;targetPerimeterSpacing&quot;:0};treeFolding=1;treeMoving=1;" vertex="1" parent="1">
          <mxGeometry x="600" y="-950" width="100" height="40" as="geometry" />
        </mxCell>
        <mxCell id="LPIL-vZghZbP_RCuR63S-412" value="1..1" style="text;strokeColor=none;fillColor=none;spacingLeft=4;spacingRight=4;overflow=hidden;rotatable=0;points=[[0,0.5],[1,0.5]];portConstraint=eastwest;fontSize=12;whiteSpace=wrap;html=1;" vertex="1" parent="1">
          <mxGeometry x="650" y="-1010" width="30" height="30" as="geometry" />
        </mxCell>
        <mxCell id="LPIL-vZghZbP_RCuR63S-413" value="0..n" style="text;strokeColor=none;fillColor=none;spacingLeft=4;spacingRight=4;overflow=hidden;rotatable=0;points=[[0,0.5],[1,0.5]];portConstraint=eastwest;fontSize=12;whiteSpace=wrap;html=1;" vertex="1" parent="1">
          <mxGeometry x="555" y="-920" width="30" height="30" as="geometry" />
        </mxCell>
        <mxCell id="LPIL-vZghZbP_RCuR63S-414" value="" style="edgeStyle=entityRelationEdgeStyle;rounded=0;orthogonalLoop=1;jettySize=auto;html=1;startArrow=none;endArrow=none;segment=10;curved=1;sourcePerimeterSpacing=0;targetPerimeterSpacing=0;entryX=1.333;entryY=1;entryDx=0;entryDy=0;entryPerimeter=0;" edge="1" parent="1" source="LPIL-vZghZbP_RCuR63S-416" target="LPIL-vZghZbP_RCuR63S-417">
          <mxGeometry relative="1" as="geometry" />
        </mxCell>
        <mxCell id="LPIL-vZghZbP_RCuR63S-415" value="" style="edgeStyle=entityRelationEdgeStyle;rounded=0;orthogonalLoop=1;jettySize=auto;html=1;startArrow=none;endArrow=none;segment=10;curved=1;sourcePerimeterSpacing=0;targetPerimeterSpacing=0;" edge="1" parent="1" source="LPIL-vZghZbP_RCuR63S-416" target="LPIL-vZghZbP_RCuR63S-385">
          <mxGeometry relative="1" as="geometry" />
        </mxCell>
        <mxCell id="LPIL-vZghZbP_RCuR63S-416" value="Avoir" style="ellipse;whiteSpace=wrap;html=1;align=center;newEdgeStyle={&quot;edgeStyle&quot;:&quot;entityRelationEdgeStyle&quot;,&quot;startArrow&quot;:&quot;none&quot;,&quot;endArrow&quot;:&quot;none&quot;,&quot;segment&quot;:10,&quot;curved&quot;:1,&quot;sourcePerimeterSpacing&quot;:0,&quot;targetPerimeterSpacing&quot;:0};treeFolding=1;treeMoving=1;" vertex="1" parent="1">
          <mxGeometry x="310" y="-1040" width="100" height="40" as="geometry" />
        </mxCell>
        <mxCell id="LPIL-vZghZbP_RCuR63S-417" value="1..1" style="text;strokeColor=none;fillColor=none;spacingLeft=4;spacingRight=4;overflow=hidden;rotatable=0;points=[[0,0.5],[1,0.5]];portConstraint=eastwest;fontSize=12;whiteSpace=wrap;html=1;" vertex="1" parent="1">
          <mxGeometry x="460" y="-1020" width="30" height="30" as="geometry" />
        </mxCell>
        <mxCell id="LPIL-vZghZbP_RCuR63S-418" value="0..n" style="text;strokeColor=none;fillColor=none;spacingLeft=4;spacingRight=4;overflow=hidden;rotatable=0;points=[[0,0.5],[1,0.5]];portConstraint=eastwest;fontSize=12;whiteSpace=wrap;html=1;" vertex="1" parent="1">
          <mxGeometry x="220" y="-1020" width="30" height="30" as="geometry" />
        </mxCell>
        <mxCell id="LPIL-vZghZbP_RCuR63S-419" value="" style="edgeStyle=entityRelationEdgeStyle;rounded=0;orthogonalLoop=1;jettySize=auto;html=1;startArrow=none;endArrow=none;segment=10;curved=1;sourcePerimeterSpacing=0;targetPerimeterSpacing=0;entryX=1;entryY=1.011;entryDx=0;entryDy=0;entryPerimeter=0;" edge="1" parent="1" source="LPIL-vZghZbP_RCuR63S-421" target="LPIL-vZghZbP_RCuR63S-422">
          <mxGeometry relative="1" as="geometry" />
        </mxCell>
        <mxCell id="LPIL-vZghZbP_RCuR63S-420" value="" style="edgeStyle=entityRelationEdgeStyle;rounded=0;orthogonalLoop=1;jettySize=auto;html=1;startArrow=none;endArrow=none;segment=10;curved=1;sourcePerimeterSpacing=0;targetPerimeterSpacing=0;entryX=0.044;entryY=0.878;entryDx=0;entryDy=0;entryPerimeter=0;" edge="1" parent="1" source="LPIL-vZghZbP_RCuR63S-421" target="LPIL-vZghZbP_RCuR63S-423">
          <mxGeometry relative="1" as="geometry" />
        </mxCell>
        <mxCell id="LPIL-vZghZbP_RCuR63S-421" value="effectuer" style="ellipse;whiteSpace=wrap;html=1;align=center;newEdgeStyle={&quot;edgeStyle&quot;:&quot;entityRelationEdgeStyle&quot;,&quot;startArrow&quot;:&quot;none&quot;,&quot;endArrow&quot;:&quot;none&quot;,&quot;segment&quot;:10,&quot;curved&quot;:1,&quot;sourcePerimeterSpacing&quot;:0,&quot;targetPerimeterSpacing&quot;:0};treeFolding=1;treeMoving=1;" vertex="1" parent="1">
          <mxGeometry x="354" y="-780" width="100" height="40" as="geometry" />
        </mxCell>
        <mxCell id="LPIL-vZghZbP_RCuR63S-422" value="0..n" style="text;strokeColor=none;fillColor=none;spacingLeft=4;spacingRight=4;overflow=hidden;rotatable=0;points=[[0,0.5],[1,0.5]];portConstraint=eastwest;fontSize=12;whiteSpace=wrap;html=1;" vertex="1" parent="1">
          <mxGeometry x="490" y="-775" width="30" height="30" as="geometry" />
        </mxCell>
        <mxCell id="LPIL-vZghZbP_RCuR63S-423" value="1..1" style="text;strokeColor=none;fillColor=none;spacingLeft=4;spacingRight=4;overflow=hidden;rotatable=0;points=[[0,0.5],[1,0.5]];portConstraint=eastwest;fontSize=12;whiteSpace=wrap;html=1;" vertex="1" parent="1">
          <mxGeometry x="270" y="-775" width="30" height="30" as="geometry" />
        </mxCell>
        <mxCell id="LPIL-vZghZbP_RCuR63S-424" style="edgeStyle=entityRelationEdgeStyle;rounded=0;orthogonalLoop=1;jettySize=auto;html=1;startArrow=none;endArrow=none;segment=10;curved=1;sourcePerimeterSpacing=0;targetPerimeterSpacing=0;entryX=1.005;entryY=0.093;entryDx=0;entryDy=0;entryPerimeter=0;" edge="1" parent="1" source="LPIL-vZghZbP_RCuR63S-426" target="LPIL-vZghZbP_RCuR63S-403">
          <mxGeometry relative="1" as="geometry" />
        </mxCell>
        <mxCell id="LPIL-vZghZbP_RCuR63S-425" style="edgeStyle=entityRelationEdgeStyle;rounded=0;orthogonalLoop=1;jettySize=auto;html=1;startArrow=none;endArrow=none;segment=10;curved=1;sourcePerimeterSpacing=0;targetPerimeterSpacing=0;entryX=0.133;entryY=-0.078;entryDx=0;entryDy=0;entryPerimeter=0;" edge="1" parent="1" source="LPIL-vZghZbP_RCuR63S-426" target="LPIL-vZghZbP_RCuR63S-427">
          <mxGeometry relative="1" as="geometry" />
        </mxCell>
        <mxCell id="LPIL-vZghZbP_RCuR63S-426" value="enregistrer" style="ellipse;whiteSpace=wrap;html=1;align=center;newEdgeStyle={&quot;edgeStyle&quot;:&quot;entityRelationEdgeStyle&quot;,&quot;startArrow&quot;:&quot;none&quot;,&quot;endArrow&quot;:&quot;none&quot;,&quot;segment&quot;:10,&quot;curved&quot;:1,&quot;sourcePerimeterSpacing&quot;:0,&quot;targetPerimeterSpacing&quot;:0};treeFolding=1;treeMoving=1;" vertex="1" parent="1">
          <mxGeometry x="310" y="-940" width="100" height="40" as="geometry" />
        </mxCell>
        <mxCell id="LPIL-vZghZbP_RCuR63S-427" value="0..n" style="text;strokeColor=none;fillColor=none;spacingLeft=4;spacingRight=4;overflow=hidden;rotatable=0;points=[[0,0.5],[1,0.5]];portConstraint=eastwest;fontSize=12;whiteSpace=wrap;html=1;" vertex="1" parent="1">
          <mxGeometry x="220" y="-887" width="30" height="30" as="geometry" />
        </mxCell>
        <mxCell id="LPIL-vZghZbP_RCuR63S-428" value="1..n" style="text;strokeColor=none;fillColor=none;spacingLeft=4;spacingRight=4;overflow=hidden;rotatable=0;points=[[0,0.5],[1,0.5]];portConstraint=eastwest;fontSize=12;whiteSpace=wrap;html=1;" vertex="1" parent="1">
          <mxGeometry x="280" y="-820" width="30" height="30" as="geometry" />
        </mxCell>
        <mxCell id="LPIL-vZghZbP_RCuR63S-429" value="MCD" style="text;strokeColor=none;align=center;fillColor=none;html=1;verticalAlign=middle;whiteSpace=wrap;rounded=0;fontStyle=1;fontSize=21;" vertex="1" parent="1">
          <mxGeometry x="344" y="-1150" width="96" height="30" as="geometry" />
        </mxCell>
      </root>
    </mxGraphModel>
  </diagram>
</mxfile>
